<?xml version="1.0" encoding="utf-8"?>
<!-- Generator: Adobe Illustrator 26.0.3, SVG Export Plug-In . SVG Version: 6.00 Build 0)  -->
<svg version="1.1" xmlns="http://www.w3.org/2000/svg" xmlns:xlink="http://www.w3.org/1999/xlink" x="0px" y="0px"
	 viewBox="0 0 1400 1400" style="enable-background:new 0 0 1400 1400;" xml:space="preserve">
<style type="text/css">
	.st0{enable-background:new    ;}
	.st1{fill:#FFCC00;}
	.st2{fill:#FFFFFF;}
</style>
<g id="Прямоугольник_2_00000163068955711242327680000010407979252327625093_" class="st0">
	<g id="Прямоугольник_2">
		<g>
			<rect x="-22.05" y="-10.72" class="st1" width="1439.45" height="1447.91"/>
		</g>
	</g>
</g>
<g id="dee">
	<g>
		<path class="st2" d="M506.41,328.82v371h-90.5v-27c-17.67,21-44.17,31.5-79.5,31.5c-24.67,0-47.17-5.75-67.5-17.25
			c-20.34-11.5-36.42-27.91-48.25-49.25c-11.84-21.33-17.75-46-17.75-74s5.91-52.58,17.75-73.75
			c11.83-21.16,27.91-37.41,48.25-48.75c20.33-11.33,42.83-17,67.5-17c32.33,0,57.33,9.34,75,28v-123.5H506.41z M396.91,611.57
			c10.66-11.5,16-27.41,16-47.75c0-20-5.25-35.66-15.75-47c-10.5-11.33-24.09-17-40.75-17c-16.67,0-30.34,5.67-41,17
			c-10.67,11.34-16,27-16,47c0,20.34,5.33,36.25,16,47.75c10.66,11.5,24.33,17.25,41,17.25
			C372.73,628.82,386.23,623.07,396.91,611.57z"/>
		<path class="st2" d="M842.9,588.32h-197c4,14,11.75,24.75,23.25,32.25s25.91,11.25,43.25,11.25c13,0,24.25-1.83,33.75-5.5
			c9.5-3.66,19.08-9.66,28.75-18l50,52c-26.34,29.34-64.84,44-115.5,44c-31.67,0-59.5-6-83.5-18s-42.59-28.66-55.75-50
			c-13.17-21.33-19.75-45.5-19.75-72.5c0-26.66,6.41-50.58,19.25-71.75c12.83-21.16,30.58-37.75,53.25-49.75
			c22.66-12,48.16-18,76.5-18c27,0,51.5,5.59,73.5,16.75c22,11.17,39.41,27.34,52.25,48.5c12.83,21.17,19.25,46.25,19.25,75.25
			C844.4,565.49,843.9,573.32,842.9,588.32z M663.15,504.32c-9.84,8.34-16.09,19.67-18.75,34h111c-2.67-14.33-8.92-25.66-18.75-34
			c-9.84-8.33-22.09-12.5-36.75-12.5C685.23,491.82,672.98,495.99,663.15,504.32z"/>
		<path class="st2" d="M1163.9,588.32h-197c4,14,11.75,24.75,23.25,32.25s25.91,11.25,43.25,11.25c13,0,24.25-1.83,33.75-5.5
			c9.5-3.66,19.08-9.66,28.75-18l50,52c-26.34,29.34-64.84,44-115.5,44c-31.67,0-59.5-6-83.5-18s-42.59-28.66-55.75-50
			c-13.17-21.33-19.75-45.5-19.75-72.5c0-26.66,6.41-50.58,19.25-71.75c12.83-21.16,30.58-37.75,53.25-49.75
			c22.66-12,48.16-18,76.5-18c27,0,51.5,5.59,73.5,16.75c22,11.17,39.41,27.34,52.25,48.5c12.83,21.17,19.25,46.25,19.25,75.25
			C1165.4,565.49,1164.9,573.32,1163.9,588.32z M984.15,504.32c-9.84,8.34-16.09,19.67-18.75,34h111
			c-2.67-14.33-8.92-25.66-18.75-34c-9.84-8.33-22.09-12.5-36.75-12.5C1006.23,491.82,993.98,495.99,984.15,504.32z"/>
	</g>
</g>
<g id="tree">
	<g>
		<path class="st2" d="M379.7,1068.61c-8,5-17.75,8.84-29.25,11.5s-23.75,4-36.75,4c-35.34,0-62.5-8.66-81.5-26
			c-19-17.33-28.5-43.16-28.5-77.5v-91h-39.5v-71h39.5v-70.5h95v70.5h62v71h-62v90c0,9.67,2.58,17.25,7.75,22.75
			c5.16,5.5,12.08,8.25,20.75,8.25c11,0,20.66-2.83,29-8.5L379.7,1068.61z"/>
		<path class="st2" d="M544.45,813.36c15.5-6.16,33.25-9.25,53.25-9.25v85.5c-8.67-1-15.84-1.5-21.5-1.5
			c-20.34,0-36.25,5.5-47.75,16.5s-17.25,27.84-17.25,50.5v124.5h-95v-271h90.5v32.5C516.36,828.78,528.95,819.53,544.45,813.36z"/>
		<path class="st2" d="M909.7,968.11h-197c4,14,11.75,24.75,23.25,32.25s25.91,11.25,43.25,11.25c13,0,24.25-1.83,33.75-5.5
			c9.5-3.66,19.08-9.66,28.75-18l50,52c-26.34,29.34-64.84,44-115.5,44c-31.67,0-59.5-6-83.5-18s-42.59-28.66-55.75-50
			c-13.17-21.33-19.75-45.5-19.75-72.5c0-26.66,6.41-50.58,19.25-71.75c12.83-21.16,30.58-37.75,53.25-49.75
			c22.66-12,48.16-18,76.5-18c27,0,51.5,5.59,73.5,16.75c22,11.17,39.41,27.34,52.25,48.5c12.83,21.17,19.25,46.25,19.25,75.25
			C911.2,945.28,910.7,953.11,909.7,968.11z M729.95,884.11c-9.84,8.34-16.09,19.67-18.75,34h111c-2.67-14.33-8.92-25.66-18.75-34
			c-9.84-8.33-22.09-12.5-36.75-12.5C752.03,871.61,739.78,875.78,729.95,884.11z"/>
		<path class="st2" d="M1230.7,968.11h-197c4,14,11.75,24.75,23.25,32.25s25.91,11.25,43.25,11.25c13,0,24.25-1.83,33.75-5.5
			c9.5-3.66,19.08-9.66,28.75-18l50,52c-26.34,29.34-64.84,44-115.5,44c-31.67,0-59.5-6-83.5-18s-42.59-28.66-55.75-50
			c-13.17-21.33-19.75-45.5-19.75-72.5c0-26.66,6.41-50.58,19.25-71.75c12.83-21.16,30.58-37.75,53.25-49.75
			c22.66-12,48.16-18,76.5-18c27,0,51.5,5.59,73.5,16.75c22,11.17,39.41,27.34,52.25,48.5c12.83,21.17,19.25,46.25,19.25,75.25
			C1232.2,945.28,1231.7,953.11,1230.7,968.11z M1050.95,884.11c-9.84,8.34-16.09,19.67-18.75,34h111
			c-2.67-14.33-8.92-25.66-18.75-34c-9.84-8.33-22.09-12.5-36.75-12.5C1073.03,871.61,1060.78,875.78,1050.95,884.11z"/>
	</g>
</g>
<g id="Прямоугольник_1_00000083060774315840786110000015432670539122355329_" class="st0">
	<g id="Прямоугольник_1">
		<g>
			<rect x="415.3" y="328.93" class="st2" width="92" height="751"/>
		</g>
	</g>
</g>
</svg>
